<?xml version="1.0" standalone="no"?>
<!DOCTYPE svg PUBLIC "-//W3C//DTD SVG 20010904//EN"
 "http://www.w3.org/TR/2001/REC-SVG-20010904/DTD/svg10.dtd">
<svg version="1.0" xmlns="http://www.w3.org/2000/svg"
 width="1500.000000pt" height="1500.000000pt" viewBox="0 0 1500.000000 1500.000000"
 preserveAspectRatio="xMidYMid meet">
<metadata>
Created by potrace 1.11, written by Peter Selinger 2001-2013
</metadata>
<g transform="translate(0.000000,1500.000000) scale(0.100000,-0.100000)"
fill="#000000" stroke="none">
<path d="M9288 12675 c-3 -3 -81 -14 -105 -14 -7 -1 -13 -5 -13 -9 0 -4 75
-18 168 -31 92 -13 176 -25 187 -26 78 -12 166 -25 200 -30 22 -3 67 -10 100
-15 33 -5 83 -11 110 -15 28 -3 61 -7 75 -10 31 -6 72 -12 130 -20 25 -3 56
-8 70 -10 14 -2 93 -13 175 -25 83 -11 177 -25 210 -30 66 -11 115 -18 178
-25 23 -3 53 -7 67 -10 14 -3 45 -8 70 -11 25 -3 56 -7 70 -9 62 -10 169 -26
205 -30 22 -3 51 -8 65 -10 14 -2 45 -7 70 -10 25 -3 56 -8 70 -10 14 -3 49
-7 79 -10 30 -3 57 -8 61 -10 3 -2 34 -6 69 -10 34 -4 71 -8 81 -10 10 -2 40
-6 67 -10 58 -8 88 -13 128 -19 17 -2 53 -7 80 -11 28 -4 66 -8 85 -11 19 -2
62 -9 95 -14 33 -5 78 -12 100 -14 22 -3 72 -10 111 -15 40 -6 96 -13 125 -17
129 -14 212 -61 253 -146 32 -67 36 -96 41 -353 5 -246 13 -561 20 -835 3
-107 7 -298 10 -425 3 -126 8 -304 10 -395 7 -295 17 -653 19 -730 2 -41 -1
-86 -6 -99 -5 -13 -7 -26 -5 -28 6 -5 144 50 217 87 37 18 61 38 66 52 7 23 7
213 -1 503 -2 83 -7 267 -10 410 -3 143 -7 357 -10 475 -30 1348 -29 1316 -55
1395 -25 75 -116 120 -280 139 -14 2 -45 6 -70 10 -25 3 -67 8 -95 11 -27 3
-61 8 -75 10 -14 3 -45 7 -69 10 -23 3 -55 7 -70 9 -14 3 -64 10 -111 16 -47
6 -101 13 -120 16 -19 3 -48 7 -65 9 -87 11 -132 17 -155 21 -14 2 -43 7 -65
9 -253 33 -354 47 -375 50 -49 8 -175 25 -450 61 -116 15 -154 21 -200 29 -14
2 -50 7 -80 10 -30 4 -82 10 -115 15 -33 5 -82 12 -110 15 -27 3 -60 8 -71 10
-12 2 -48 7 -80 10 -33 4 -66 9 -74 10 -21 4 -88 14 -130 19 -175 24 -279 38
-300 41 -55 8 -107 15 -150 20 -25 4 -56 8 -70 10 -156 24 -341 40 -352 30z"/>
<path d="M8944 12416 c-18 -16 -26 -36 -32 -81 -6 -53 -8 -386 -3 -700 4 -222
5 -215 -28 -215 -25 0 -31 -7 -55 -62 -33 -75 -41 -120 -39 -217 3 -123 58
-250 111 -254 12 -1 22 -6 23 -12 0 -5 2 -102 5 -215 8 -445 13 -566 23 -598
22 -71 73 -128 138 -153 28 -11 174 -41 284 -59 35 -5 75 -12 89 -15 14 -3 66
-12 115 -21 129 -22 137 -23 165 -29 14 -3 50 -9 80 -15 30 -5 82 -14 115 -20
33 -6 75 -13 94 -16 l34 -6 -7 49 c-4 26 -10 56 -13 67 -4 15 -1 17 24 12 15
-3 179 -35 363 -71 184 -37 342 -68 351 -70 9 -2 32 -6 50 -9 19 -3 104 -19
189 -36 85 -17 166 -34 180 -36 14 -2 59 -12 102 -20 l76 -16 7 -46 c9 -61 12
-68 36 -69 12 -1 69 -11 128 -22 58 -11 122 -23 141 -26 19 -3 46 -7 60 -10
14 -3 39 -7 55 -10 17 -3 41 -7 55 -10 14 -3 52 -10 85 -15 33 -5 71 -12 85
-15 348 -74 421 -58 406 92 -13 130 -18 207 -31 488 -3 61 -7 148 -10 195 -13
268 -19 561 -19 915 -1 459 7 591 41 663 36 76 -9 193 -90 235 -34 18 -173 43
-345 63 -31 3 -64 7 -72 9 -31 5 -96 14 -145 20 -27 3 -61 8 -75 10 -14 3 -41
7 -60 9 -75 10 -286 37 -310 41 -14 2 -43 6 -65 9 -22 3 -59 8 -81 11 -42 6
-75 10 -153 20 -23 3 -55 7 -70 9 -14 3 -48 7 -76 11 -27 3 -61 8 -75 10 -39
6 -171 24 -220 30 -25 3 -56 8 -70 10 -24 4 -94 13 -155 20 -25 3 -104 14
-285 39 -19 3 -57 8 -83 11 -27 4 -58 8 -69 10 -11 3 -44 7 -72 10 -28 2 -62
7 -76 9 -23 4 -63 9 -160 22 -19 2 -64 9 -100 14 -36 5 -87 12 -115 15 -92 12
-120 16 -140 20 -11 2 -47 7 -80 10 -33 4 -93 13 -134 19 -70 12 -75 12 -97
-8z m120 -1166 c3 -69 8 -183 11 -255 l6 -130 -26 40 c-66 104 -85 279 -43
392 20 54 38 87 43 81 2 -2 5 -59 9 -128z m1206 -256 l0 -112 -35 5 c-19 2
-47 8 -62 12 l-28 7 -1 110 -2 110 64 -10 64 -9 0 -113z m118 33 c8 0 12 -24
12 -84 l0 -85 -30 6 c-16 3 -43 8 -58 11 -29 6 -29 6 -29 86 l0 81 46 -7 c25
-4 52 -8 59 -8z m112 -21 c14 -3 28 -5 31 -5 3 -1 5 -37 5 -82 l-1 -81 -45 8
c-25 3 -51 7 -57 7 -9 0 -13 24 -13 83 l0 84 28 -5 c15 -3 38 -7 52 -9z m168
-31 c4 -4 5 -52 3 -141 -1 -19 -5 -24 -18 -20 -10 3 -33 8 -52 11 -19 3 -37 8
-41 10 -5 3 -6 137 -1 154 1 4 104 -8 109 -14z m124 -21 c15 -5 18 -17 17 -85
0 -43 -5 -79 -9 -79 -5 0 -31 5 -59 12 l-51 11 0 80 0 79 43 -7 c23 -3 50 -9
59 -11z m98 -15 c55 -12 51 -4 52 -107 0 -29 -2 -55 -5 -58 -2 -3 -28 -2 -56
2 l-51 7 0 83 c0 46 2 84 5 84 2 0 27 -5 55 -11z m256 -11 c2 -13 -5 -18 -22
-18 -18 0 -24 5 -24 21 0 15 5 20 22 17 11 -2 22 -11 24 -20z m-71 -104 l0
-79 -34 3 c-75 8 -79 13 -79 94 1 40 3 76 4 79 2 3 27 1 56 -6 l53 -12 0 -79z
m66 64 c1 -7 2 -45 3 -84 2 -60 -1 -71 -14 -69 -8 2 -18 4 -22 4 -5 1 -8 37
-8 81 0 73 2 80 20 80 11 0 21 -6 21 -12z m116 -12 c20 -3 22 -9 24 -76 2 -99
4 -93 -42 -86 -72 11 -75 16 -73 98 1 40 2 75 3 77 1 2 18 0 39 -4 20 -4 42
-8 49 -9z"/>
<path d="M6193 12399 c-23 -4 -53 -15 -67 -25 -26 -16 -26 -17 -26 -154 0
-172 -2 -170 131 -170 l95 0 -1 136 c0 74 2 139 5 144 3 4 30 9 60 11 100 5
111 17 41 46 -40 17 -174 24 -238 12z"/>
<path d="M6010 12257 c-3 -3 -25 -7 -50 -10 -25 -3 -70 -11 -100 -17 -30 -6
-71 -13 -90 -16 -19 -2 -46 -7 -60 -10 -14 -3 -34 -7 -45 -9 -84 -15 -270 -48
-284 -50 -9 -2 -25 -4 -36 -4 -13 -1 4 -15 45 -37 36 -20 85 -53 110 -74 28
-23 138 -80 289 -150 l245 -113 145 33 c80 17 153 34 161 35 70 16 300 68 320
72 14 3 30 6 35 7 6 1 46 11 89 21 l79 18 -164 81 c-90 45 -165 81 -167 80 -1
-1 -4 -10 -7 -22 -5 -30 -26 -59 -51 -73 -30 -16 -324 -15 -363 1 -42 17 -54
49 -55 147 -2 80 -3 88 -22 91 -11 2 -22 1 -24 -1z"/>
<path d="M4689 12245 c-3 -2 -20 -7 -39 -10 -19 -3 -147 -28 -285 -56 -137
-27 -261 -52 -275 -54 -14 -3 -36 -7 -50 -10 -14 -3 -36 -7 -50 -10 -23 -4
-211 -42 -255 -51 -11 -2 -33 -7 -50 -9 -16 -3 -118 -23 -225 -45 -107 -21
-209 -41 -225 -44 -41 -7 -952 -188 -1020 -202 -11 -2 -36 -7 -55 -10 -19 -3
-43 -7 -52 -10 -10 -3 -30 -7 -45 -10 -16 -3 -163 -32 -328 -65 -165 -33 -309
-61 -320 -63 -17 -3 -258 -51 -307 -61 -35 -7 -141 -54 -194 -86 -102 -62
-222 -192 -286 -309 -27 -50 -74 -166 -83 -202 -50 -221 -45 -419 16 -600 61
-182 184 -352 326 -450 53 -36 175 -93 221 -103 80 -17 218 99 299 251 75 142
127 337 132 494 1 25 5 27 123 48 68 13 137 25 153 28 17 2 140 25 275 50 135
25 308 56 385 70 77 14 163 29 190 34 28 5 124 23 215 39 236 43 391 71 420
77 14 2 41 7 60 10 19 3 42 7 50 9 8 2 80 16 160 30 80 14 156 27 170 30 14 3
39 7 55 10 17 3 53 10 80 15 28 5 66 12 85 15 36 6 189 34 225 41 11 3 36 7
55 10 19 3 42 7 50 9 8 2 31 7 50 10 41 7 244 43 280 50 14 3 63 12 110 20 47
8 99 17 115 20 42 8 196 36 220 41 11 2 47 9 80 14 33 6 80 15 105 20 25 6 61
12 80 15 19 2 44 6 55 8 11 3 40 8 65 13 25 4 47 8 50 9 3 1 29 5 59 9 l53 8
-5 82 c-3 44 -8 92 -11 106 -4 14 -9 39 -11 55 -10 54 -47 159 -81 228 -117
236 -308 400 -539 463 -55 15 -266 30 -276 19z"/>
<path d="M5332 12068 c13 -13 37 -30 53 -38 16 -8 66 -51 110 -95 118 -118
187 -258 219 -437 14 -82 14 -253 0 -313 -3 -16 -8 -39 -9 -50 -2 -11 -4 -20
-5 -20 -1 0 -3 -7 -5 -15 -8 -37 -39 -119 -63 -165 -24 -46 -88 -143 -102
-155 -11 -9 -60 -84 -60 -92 0 -14 64 31 113 79 129 126 198 331 191 563 -1
55 -5 108 -8 117 -3 10 -8 36 -12 57 -13 89 -71 227 -142 341 -38 61 -172 187
-233 218 -65 33 -80 35 -47 5z"/>
<path d="M8322 11839 c-110 -20 -148 -79 -157 -244 -4 -60 -8 -132 -10 -160
-2 -27 -6 -102 -9 -165 -4 -63 -9 -142 -11 -175 -3 -33 -7 -105 -10 -160 -3
-55 -7 -129 -10 -165 -2 -36 -7 -112 -10 -170 -4 -58 -8 -125 -10 -150 -2 -25
-7 -101 -10 -170 -4 -68 -8 -127 -10 -130 -6 -9 12 -33 27 -36 7 -1 22 -4 33
-7 107 -22 151 -27 300 -33 l140 -6 1 718 c0 396 3 745 7 777 l7 57 -68 1
c-132 2 -295 25 -272 39 6 4 32 3 58 -1 26 -4 101 -6 167 -5 106 2 125 5 157
24 21 13 72 40 114 61 l77 38 -74 17 c-41 8 -92 18 -114 21 -22 3 -46 8 -53
10 -7 3 -54 7 -105 11 -50 3 -96 7 -102 8 -5 1 -30 -1 -53 -5z"/>
<path d="M6909 11660 c-15 -4 -46 -10 -70 -13 -50 -7 -188 -31 -299 -52 -41
-8 -93 -17 -115 -20 -22 -3 -47 -7 -55 -10 -8 -2 -33 -6 -55 -10 -89 -12 -111
-17 -143 -31 -18 -9 -44 -33 -58 -54 l-26 -40 0 -314 c0 -287 1 -318 18 -352
35 -70 57 -79 214 -81 l139 -2 -22 42 c-21 40 -22 54 -23 337 -1 313 3 339 48
387 24 26 85 51 143 57 22 3 103 16 180 30 77 14 156 27 175 31 19 3 58 10 87
16 28 5 58 9 65 8 22 -4 118 13 118 20 0 10 -91 37 -164 50 -68 13 -119 13
-157 1z"/>
<path d="M7290 11573 c-63 -12 -128 -25 -145 -27 -16 -3 -41 -8 -55 -11 -14
-3 -59 -12 -100 -20 -166 -31 -221 -42 -225 -47 -5 -5 -54 -133 -60 -158 -2
-8 -22 -67 -45 -130 -23 -63 -55 -150 -70 -193 l-28 -78 27 -52 c29 -58 11
-51 231 -92 80 -15 154 -29 165 -31 51 -10 243 -46 265 -50 14 -3 30 -6 37 -9
7 -2 37 102 88 313 43 174 81 321 86 326 5 6 14 11 21 12 7 1 33 5 58 8 25 4
83 13 130 21 47 8 103 17 125 20 22 3 51 8 65 10 76 14 131 22 203 32 28 3 47
11 47 19 0 11 -14 17 -75 28 -11 2 -87 18 -170 36 -82 18 -161 34 -175 37 -14
2 -45 9 -70 14 -25 6 -56 13 -70 15 -14 3 -52 11 -85 17 -53 11 -74 10 -175
-10z"/>
<path d="M8055 11365 c-22 -6 -43 -12 -48 -13 -4 -1 -28 -13 -55 -26 -90 -46
-168 -138 -213 -251 l-24 -60 -2 -720 c-3 -799 -4 -781 63 -901 60 -109 186
-203 294 -220 53 -9 48 7 -12 36 -58 28 -118 76 -162 131 -47 59 -63 87 -88
164 -18 57 -19 90 -19 745 0 592 2 693 16 744 31 119 99 209 212 285 34 22 66
41 72 41 16 0 22 17 14 38 -7 18 -12 18 -48 7z"/>
<path d="M8064 11232 c-68 -37 -138 -118 -177 -203 -39 -85 -58 -235 -43 -339
7 -49 39 -137 68 -189 29 -51 119 -144 129 -134 4 5 10 60 14 123 3 63 8 138
10 165 2 28 7 97 10 155 12 206 14 256 20 348 3 50 5 92 3 92 -2 -1 -17 -9
-34 -18z"/>
<path d="M8069 10013 c0 -10 -2 -48 -5 -85 -4 -66 -4 -68 25 -83 62 -31 186
-52 366 -61 l121 -6 -1 95 c0 53 -2 98 -5 100 -3 2 -63 7 -135 11 -71 4 -146
9 -165 11 -94 12 -118 16 -150 25 -47 13 -50 13 -51 -7z"/>
<path d="M7984 9928 c-156 -116 -178 -414 -41 -565 37 -41 78 -59 150 -67 50
-5 57 -4 58 11 0 10 1 46 2 81 2 41 7 66 16 72 11 6 8 13 -14 32 -28 25 -28
26 -31 154 -1 71 -2 132 -3 135 0 4 -18 14 -39 22 -52 21 -60 34 -64 95 l-3
53 -31 -23z"/>
<path d="M9163 9791 c-131 -45 -227 -179 -237 -333 -13 -208 129 -387 320
-403 50 -4 54 -3 23 5 -211 54 -330 298 -250 511 41 108 103 171 208 215 55
22 56 24 23 23 -19 0 -58 -8 -87 -18z"/>
<path d="M10104 9771 c3 -20 12 -74 20 -121 8 -47 17 -101 21 -120 3 -19 15
-80 26 -135 11 -55 22 -113 25 -130 20 -122 54 -203 105 -253 56 -55 76 -57
364 -37 33 2 125 7 205 11 218 10 205 8 202 30 -13 94 -10 102 114 330 l120
219 -25 8 c-14 4 -39 10 -56 12 -47 9 -379 74 -490 97 -55 11 -111 22 -125 25
-91 16 -388 74 -400 78 -8 3 -37 9 -63 14 l-48 9 5 -37z"/>
<path d="M8169 9758 c-1 -14 -1 -125 0 -195 1 -40 2 -42 49 -56 78 -25 158
-36 295 -41 l97 -4 1 62 c1 75 1 199 0 207 -1 3 -25 6 -53 6 -71 0 -257 12
-288 18 -77 15 -100 16 -101 3z"/>
<path d="M8675 9605 l-1 -135 28 0 28 0 0 135 0 135 -27 0 -28 0 0 -135z"/>
<path d="M9385 9729 c-56 -12 -84 -28 -126 -71 -61 -63 -82 -117 -83 -213 0
-70 3 -87 30 -140 35 -68 105 -129 163 -141 20 -4 42 -8 49 -10 17 -3 16 -2
-29 46 -37 39 -66 88 -76 130 -25 102 -12 221 34 299 24 41 39 57 92 98 14 10
13 12 -4 10 -11 0 -33 -4 -50 -8z"/>
<path d="M10045 9449 c-86 -27 -177 -81 -193 -113 -8 -15 -15 -53 -15 -84 l-2
-57 35 1 c57 1 150 14 221 30 l66 15 -8 42 c-5 23 -10 52 -13 64 -2 11 -8 42
-11 67 -4 26 -10 48 -14 50 -3 2 -33 -5 -66 -15z"/>
<path d="M8513 9419 c-26 -9 22 -19 87 -18 51 0 116 16 80 19 -57 4 -154 4
-167 -1z"/>
<path d="M13380 9389 c-69 -16 -150 -35 -180 -42 -46 -11 -56 -17 -58 -37 -2
-13 -11 -34 -19 -46 -14 -22 -118 -77 -206 -110 -23 -9 -51 -20 -62 -24 -86
-35 -200 -37 -381 -6 -118 20 -158 24 -185 15 -18 -5 -45 -11 -59 -13 -14 -2
-45 -9 -70 -16 -25 -7 -54 -14 -65 -16 -11 -2 -139 -31 -285 -64 -146 -34
-274 -63 -285 -65 -38 -8 -121 -27 -240 -55 -66 -16 -131 -31 -145 -33 -14 -3
-56 -13 -95 -22 -38 -9 -81 -19 -95 -21 -14 -3 -61 -14 -105 -24 -44 -11 -141
-33 -216 -49 -74 -17 -142 -33 -150 -35 -8 -3 -25 -7 -39 -10 -14 -2 -57 -12
-97 -21 -79 -18 -70 -8 -153 -160 -18 -33 -60 -107 -93 -165 l-60 -105 -2
-140 c-2 -144 3 -166 44 -205 9 -8 57 -62 106 -119 50 -56 101 -115 114 -130
13 -14 40 -46 60 -70 l36 -44 1 -679 c0 -373 4 -681 8 -685 4 -4 33 -8 66 -10
l60 -3 0 673 c0 575 -2 680 -15 718 -17 49 -97 160 -195 269 -92 103 -103 123
-101 182 1 38 11 67 45 126 48 83 71 125 168 300 34 61 70 115 79 117 10 3 26
8 36 10 10 2 61 13 113 25 52 12 102 23 110 25 32 7 466 106 485 110 28 7 517
116 535 120 8 2 148 33 310 70 162 37 313 71 335 76 22 4 110 24 195 44 85 20
166 38 180 41 28 5 339 75 465 104 44 11 91 21 105 24 14 2 56 12 93 21 l68
16 182 -97 c200 -107 276 -147 370 -198 34 -18 107 -57 162 -86 55 -29 115
-61 133 -72 24 -15 32 -16 33 -6 6 71 4 100 -5 112 -9 13 -104 69 -276 164
-25 14 -85 48 -135 77 -49 29 -110 64 -135 77 -25 14 -109 61 -188 106 -78 44
-150 83 -160 85 -9 3 -73 -8 -142 -24z"/>
<path d="M8199 9392 c-1 -4 -2 -87 -3 -185 -2 -200 -7 -186 79 -205 72 -16
107 -20 228 -27 99 -6 107 -5 108 12 4 71 0 355 -4 359 -3 3 -50 7 -104 10
-130 5 -181 10 -248 28 -30 8 -55 11 -56 8z"/>
<path d="M8679 9355 c-1 0 -2 -84 -3 -187 l-2 -188 28 0 28 0 0 190 0 190 -25
-2 c-14 -1 -26 -3 -26 -3z"/>
<path d="M9715 9233 c-38 -20 -72 -39 -75 -42 -3 -4 -30 -22 -60 -40 -30 -19
-82 -55 -115 -80 -33 -26 -73 -55 -89 -65 -39 -25 -94 -37 -103 -23 -3 5 -2 8
3 4 5 -3 20 1 34 9 23 13 21 14 -35 9 -33 -2 -69 -6 -80 -9 -11 -2 -33 -5 -50
-5 -55 -2 -61 -14 -32 -63 45 -77 112 -109 212 -101 81 6 173 43 310 126 72
44 146 88 165 99 19 11 38 22 42 24 4 3 -4 20 -17 40 -13 19 -27 56 -30 82 -4
26 -7 52 -8 59 -1 6 -30 -3 -72 -24z"/>
<path d="M7487 9224 c-1 -1 -33 -4 -72 -8 -187 -17 -328 -43 -455 -83 -118
-37 -394 -180 -720 -372 -151 -90 -289 -171 -306 -181 -248 -143 -267 -164
-280 -295 -5 -51 6 -186 22 -270 2 -11 7 -36 10 -55 3 -19 13 -62 21 -95 8
-33 17 -70 19 -81 2 -12 22 -77 45 -145 79 -242 189 -436 253 -447 19 -4 146
27 146 35 0 3 -17 25 -38 51 -85 104 -151 299 -201 598 -11 65 -23 146 -26
179 -3 33 -8 70 -11 83 -4 20 -2 23 16 18 46 -13 57 -16 95 -21 118 -16 174
-19 315 -18 147 0 293 7 370 18 19 2 60 7 90 10 30 4 62 8 70 10 15 4 125 17
148 18 17 1 15 12 -5 28 -13 11 -66 14 -262 12 -135 -1 -284 -5 -331 -8 -116
-10 -122 -9 -229 4 -129 16 -129 15 -79 86 30 43 34 45 82 46 121 2 229 16
301 39 54 17 371 88 430 96 16 2 37 7 47 10 9 2 25 7 35 9 10 2 95 20 188 39
94 20 184 39 200 42 17 3 50 10 75 15 25 6 56 13 70 15 14 2 66 13 116 25 l90
20 0 38 c-1 44 -14 58 -106 109 -71 40 -144 58 -266 67 -104 7 -170 28 -211
67 -76 72 40 143 319 197 143 27 214 34 355 32 72 0 124 3 128 9 7 12 -5 17
-55 24 -19 2 -44 7 -55 9 -52 12 -159 21 -248 22 -54 0 -99 -1 -100 -1z"/>
<path d="M10168 9094 c-3 -2 -47 -7 -99 -10 -52 -4 -104 -7 -116 -8 -35 -3
-36 -12 -2 -28 23 -11 61 -15 144 -14 63 1 117 4 120 8 9 9 -11 44 -29 51 -8
3 -16 4 -18 1z"/>
<path d="M8197 8733 c1 -131 2 -246 2 -256 2 -47 186 -77 441 -71 156 3 173 5
265 25 92 21 85 -3 85 285 l0 255 -25 -4 c-13 -1 -27 -6 -31 -10 -4 -3 -7
-108 -6 -231 l0 -225 -26 -5 c-28 -6 -60 -11 -129 -21 l-43 -6 0 229 c0 220
-1 230 -20 235 -10 3 -23 0 -28 -7 -4 -6 -8 -111 -7 -233 l0 -223 -31 0 -32 0
0 225 c1 124 -1 227 -3 229 -2 2 -58 6 -124 10 -115 6 -141 8 -202 22 -16 3
-42 8 -58 11 l-30 5 2 -239z"/>
<path d="M12990 8736 c0 -3 18 -45 41 -94 34 -74 44 -89 60 -85 10 3 19 6 19
8 0 13 -62 135 -69 135 -5 0 -8 8 -7 17 0 12 -7 19 -21 21 -13 2 -23 1 -23 -2z"/>
<path d="M13105 8717 c-22 -5 -41 -11 -43 -12 -1 -1 11 -33 29 -70 l31 -67 41
6 c23 4 45 10 49 14 7 7 -45 127 -59 134 -4 3 -26 0 -48 -5z"/>
<path d="M12942 8680 c-18 -4 -35 -10 -38 -13 -3 -2 10 -34 28 -71 32 -66 32
-66 68 -60 60 11 61 13 28 87 -17 37 -36 67 -42 66 -6 -1 -26 -5 -44 -9z"/>
<path d="M12835 8653 c-46 -10 -46 -11 -11 -82 l35 -68 45 10 c26 6 46 14 46
19 0 5 -14 35 -30 68 -30 60 -37 64 -85 53z"/>
<path d="M12718 8627 l-37 -9 35 -69 c30 -61 37 -69 57 -64 13 4 32 7 42 9 29
4 28 18 -4 83 -32 63 -34 64 -93 50z"/>
<path d="M12603 8600 c-28 -12 -28 -10 3 -73 38 -76 40 -77 77 -65 18 5 38 11
45 14 8 2 3 23 -20 69 -34 69 -50 77 -105 55z"/>
<path d="M12276 8579 c-22 -5 -41 -11 -43 -13 -3 -3 73 -172 84 -185 1 -2 31
3 65 12 35 9 79 19 98 23 19 5 37 9 40 9 3 1 24 5 46 10 66 12 67 14 33 86
-17 35 -32 65 -34 67 -3 3 -85 -15 -90 -20 -2 -2 9 -32 26 -67 17 -35 29 -65
27 -67 -2 -2 -19 27 -37 65 l-32 68 -45 -10 c-29 -7 -44 -16 -44 -26 -1 -9 -9
-1 -18 18 -20 40 -24 42 -76 30z m112 -94 c-3 -3 -9 2 -12 12 -6 14 -5 15 5 6
7 -7 10 -15 7 -18z"/>
<path d="M13465 8490 c-66 -16 -131 -31 -145 -33 -14 -3 -54 -12 -90 -21 -89
-21 -574 -133 -663 -152 -40 -8 -79 -17 -87 -19 -127 -30 -289 -68 -302 -70
-13 -3 -281 -63 -398 -90 -8 -2 -46 -11 -85 -20 -38 -9 -81 -19 -95 -22 -14
-2 -72 -15 -130 -29 -58 -14 -114 -26 -125 -27 -15 -2 -49 -61 -145 -253
l-125 -249 0 -1497 0 -1497 159 -186 c87 -102 162 -188 167 -190 4 -3 27 1 51
9 24 8 75 24 113 35 39 11 106 31 150 45 44 13 132 40 195 60 63 19 234 72
380 116 146 45 285 88 310 95 41 12 284 86 555 170 61 19 152 46 203 62 l94
28 111 119 c62 65 127 135 146 155 18 20 93 99 165 176 73 77 159 170 193 206
33 36 82 88 109 116 27 28 71 75 98 104 26 30 79 86 118 126 l69 71 4 309 c5
294 7 502 21 1465 l5 426 -43 25 c-65 37 -376 211 -433 242 -27 15 -130 72
-227 126 -98 55 -183 99 -190 98 -7 -1 -67 -14 -133 -29z"/>
<path d="M8580 7816 c-92 -21 -91 -23 24 -40 94 -15 279 -92 386 -162 129 -84
273 -213 388 -349 241 -286 455 -774 517 -1175 3 -19 8 -46 10 -60 18 -90 28
-246 27 -397 -1 -189 -11 -278 -48 -453 -80 -373 -246 -664 -481 -843 -29 -21
-53 -41 -53 -43 0 -1 24 7 53 20 28 13 72 32 97 42 93 40 153 88 207 165 107
156 195 348 249 546 22 81 24 100 14 117 -10 16 -14 134 -16 491 -2 258 -1
478 2 488 3 9 12 17 19 17 8 0 34 6 57 14 24 8 76 24 116 36 56 18 71 26 68
39 -3 9 -7 27 -10 41 -17 93 -77 289 -125 409 -43 106 -122 271 -142 297 -5 6
-38 11 -74 11 -36 0 -67 2 -68 4 -2 2 -25 36 -52 74 -157 226 -401 469 -570
567 -115 66 -276 122 -435 150 -68 13 -82 12 -160 -6z"/>
<path d="M8240 7679 c-60 -11 -145 -37 -198 -61 -55 -24 -142 -78 -142 -87 0
-3 33 -12 73 -19 81 -14 78 -13 130 -31 35 -12 50 -11 127 5 31 7 167 8 215 1
375 -49 763 -426 979 -949 33 -81 90 -246 101 -290 66 -288 80 -392 80 -623 0
-191 -6 -260 -35 -400 -38 -183 -106 -355 -195 -490 -36 -55 -149 -176 -201
-216 -46 -36 -153 -88 -219 -109 -57 -17 -80 -31 -125 -75 -30 -29 -68 -65
-85 -79 l-30 -26 125 4 c106 3 139 8 215 34 148 49 249 113 363 232 206 213
348 571 377 951 13 158 7 406 -10 494 -2 11 -7 40 -10 65 -5 48 -6 54 -31 175
-33 165 -129 440 -206 590 -240 471 -576 784 -953 887 -78 21 -270 31 -345 17z"/>
<path d="M7423 7498 c-14 -6 -594 -154 -673 -173 -8 -2 -71 -17 -140 -35 -69
-18 -132 -33 -140 -35 -8 -2 -103 -26 -211 -53 -159 -41 -214 -51 -290 -53
-122 -2 -146 -2 -259 0 -52 1 -118 -3 -146 -8 -78 -15 -577 -142 -592 -150
-10 -6 -7 -12 11 -24 22 -14 30 -14 83 -1 33 8 67 16 77 19 34 8 382 97 402
102 11 3 115 7 230 8 205 3 212 2 275 -23 35 -14 87 -38 115 -55 83 -49 145
-90 141 -94 -3 -4 -79 -26 -126 -37 -8 -2 -62 -16 -120 -31 -58 -15 -112 -28
-121 -30 -8 -2 -60 -15 -115 -29 -54 -15 -108 -28 -119 -31 -43 -9 -350 -89
-354 -91 -2 -2 18 -29 45 -61 80 -95 147 -183 204 -272 19 -30 38 -58 41 -63
6 -9 88 10 728 173 172 44 318 78 325 76 15 -6 130 -177 123 -183 -3 -3 -20
-9 -39 -14 -18 -4 -177 -45 -353 -90 -176 -45 -327 -83 -335 -85 -28 -6 -305
-76 -318 -80 -14 -5 36 -115 53 -115 5 0 53 12 105 26 52 14 147 38 210 54 63
15 223 56 355 90 132 34 247 63 255 65 16 3 95 23 122 31 13 4 28 -19 68 -102
120 -250 214 -540 250 -769 6 -38 13 -80 15 -93 19 -112 26 -457 12 -607 -29
-298 -113 -600 -224 -805 -44 -81 -62 -101 -143 -156 -36 -24 -92 -67 -125
-95 -68 -57 -195 -123 -270 -139 -27 -6 -63 -15 -80 -20 -25 -8 -380 -98 -410
-104 -34 -7 -53 -19 -68 -45 l-17 -28 58 14 c31 7 64 15 72 17 8 2 62 16 120
31 58 15 112 28 120 30 100 21 278 72 325 93 92 40 172 93 244 162 54 51 163
111 237 129 43 11 151 38 239 61 88 23 167 43 175 45 8 2 80 20 160 40 143 36
161 41 199 49 10 3 81 21 157 41 77 20 184 48 238 61 128 32 157 45 209 92 23
22 58 54 77 71 l35 32 -59 -37 c-32 -20 -78 -45 -101 -55 -40 -18 -312 -93
-379 -105 -16 -3 -33 -7 -38 -10 -4 -3 -16 -7 -25 -9 -10 -2 -92 -22 -183 -45
-91 -23 -172 -43 -180 -45 -26 -6 -254 -65 -275 -72 -12 -3 3 19 39 58 102
113 183 251 250 432 34 92 78 255 92 341 3 21 7 48 10 60 26 137 26 566 -1
731 -3 17 -8 46 -11 65 -3 19 -8 46 -10 60 -16 93 -94 361 -129 445 -7 17 -26
62 -43 102 l-30 71 26 8 c15 4 32 8 37 10 17 4 1088 283 1131 295 l41 11 -29
54 c-16 30 -33 52 -37 50 -6 -4 -247 -69 -301 -81 -8 -2 -76 -20 -150 -39 -74
-20 -274 -72 -444 -117 -170 -44 -313 -82 -318 -85 -4 -3 -11 3 -15 13 -4 10
-27 51 -51 91 -24 40 -43 75 -41 76 2 2 67 20 144 40 77 20 295 76 485 126
190 50 400 104 468 122 67 17 122 34 122 37 0 16 -145 196 -220 273 l-85 88
-100 -25 c-93 -24 -374 -98 -630 -165 -60 -16 -171 -45 -245 -64 -74 -19 -159
-42 -189 -50 l-55 -15 -35 32 c-132 119 -329 224 -478 254 -21 4 -41 8 -45 9
-5 1 -27 2 -50 3 -23 0 -39 3 -37 5 3 3 575 151 659 171 15 3 92 22 120 29 8
2 80 21 160 41 80 20 156 39 170 42 36 7 157 7 215 0 49 -6 49 -6 10 4 -22 6
-47 13 -55 16 -8 3 -19 7 -25 8 -5 2 -29 8 -53 14 -44 12 -118 11 -149 -1z"/>
<path d="M7830 7480 c0 -4 19 -13 43 -20 236 -70 551 -355 747 -675 102 -167
194 -366 260 -565 32 -97 84 -303 94 -375 3 -22 8 -51 11 -65 11 -59 15 -88
22 -179 21 -264 6 -472 -52 -746 -14 -64 -72 -221 -112 -303 -49 -100 -142
-233 -201 -289 -40 -38 -34 -42 17 -11 160 97 317 297 390 498 7 19 17 44 22
55 30 71 83 324 94 455 11 126 6 377 -9 489 -3 20 -8 56 -11 81 -11 78 -36
196 -75 350 -20 77 -84 249 -133 359 -107 235 -238 430 -402 597 -221 225
-409 323 -667 348 -21 2 -38 0 -38 -4z"/>
<path d="M4166 7143 c-2 -2 -16 -6 -32 -9 -16 -3 -65 -14 -109 -25 -44 -12
-87 -22 -95 -24 -8 -2 -73 -17 -145 -35 -243 -59 -324 -78 -365 -86 -25 -5
-230 -54 -645 -155 -121 -29 -222 -54 -225 -54 -122 -28 -176 -85 -131 -139
16 -19 86 -52 197 -91 242 -87 308 -127 306 -184 -1 -43 -33 -90 -130 -192
-119 -126 -136 -144 -163 -179 -13 -17 -28 -37 -34 -43 -110 -130 -207 -360
-236 -560 -10 -72 -14 -280 -5 -327 2 -14 7 -50 11 -80 8 -60 8 -65 24 -130
61 -262 205 -473 461 -675 203 -160 237 -228 178 -356 -14 -30 -85 -144 -158
-254 -223 -333 -271 -442 -272 -610 -1 -269 302 -519 722 -595 82 -15 279 -21
345 -9 108 18 38 1 780 189 242 62 447 113 455 115 8 2 33 8 55 14 22 6 42 10
45 10 3 0 17 4 33 10 15 6 38 13 51 15 119 22 256 77 374 152 86 55 240 215
312 324 60 91 132 227 160 301 48 128 99 304 116 399 2 14 9 48 14 75 27 146
35 258 35 500 0 195 -6 326 -19 405 -2 14 -7 45 -10 70 -13 89 -17 116 -32
190 -210 1056 -853 1900 -1548 2035 -63 12 -309 18 -320 8z m-1166 -393 c190
-36 398 -138 581 -285 195 -157 424 -270 759 -374 36 -11 184 -50 329 -86 484
-121 560 -156 622 -282 20 -39 24 -64 24 -133 0 -47 -3 -96 -7 -110 -21 -75
-78 -342 -84 -389 -3 -31 -8 -59 -10 -62 -2 -3 -6 -44 -10 -90 -3 -46 -8 -87
-10 -91 -6 -9 -5 -365 1 -513 7 -181 15 -352 19 -371 2 -11 7 -44 11 -74 22
-176 76 -344 150 -467 73 -123 54 -185 -95 -306 -152 -123 -559 -345 -965
-527 -88 -39 -179 -80 -202 -90 -33 -16 -135 -44 -303 -86 -8 -2 -42 -11 -75
-20 -66 -19 -269 -25 -365 -11 -267 38 -513 163 -636 324 -114 149 -117 295
-11 505 46 91 88 156 264 418 73 108 114 202 115 262 1 101 -42 159 -226 307
-117 95 -228 204 -263 259 -10 15 -23 32 -29 39 -39 41 -133 264 -149 353 -3
19 -10 54 -16 78 -21 97 -28 299 -14 417 12 97 52 238 94 328 64 139 149 254
319 432 115 120 149 171 155 234 8 81 -52 125 -296 216 -175 66 -214 82 -222
94 -11 19 47 43 197 82 162 41 218 44 348 19z"/>
<path d="M3396 6477 c-8 -17 -25 -57 -39 -87 -47 -104 -114 -326 -131 -430 -7
-45 -15 -88 -22 -122 -5 -26 -7 -39 -20 -183 -15 -150 -8 -518 11 -645 2 -14
7 -45 10 -70 7 -55 23 -148 29 -176 2 -12 7 -38 10 -59 8 -51 23 -109 62 -251
187 -674 555 -1241 1002 -1543 63 -42 222 -126 253 -133 15 -3 308 141 351
173 21 17 20 17 -27 8 -148 -28 -378 18 -545 109 -303 165 -569 461 -767 852
-72 142 -86 175 -135 305 -58 153 -100 305 -137 495 -41 204 -52 305 -55 525
-4 282 28 518 105 755 35 107 115 280 165 355 19 27 34 53 34 56 0 3 -31 27
-70 53 l-70 46 -14 -33z"/>
<path d="M3558 6283 c-184 -312 -264 -714 -234 -1181 4 -62 9 -121 11 -130 1
-9 6 -46 10 -82 4 -36 9 -72 10 -80 2 -8 11 -51 20 -95 9 -44 18 -87 20 -95 2
-8 8 -35 15 -60 7 -25 14 -53 15 -62 8 -37 96 -292 125 -360 90 -209 190 -384
319 -558 44 -60 82 -102 176 -196 422 -425 915 -477 1256 -132 32 32 59 65 59
71 0 7 -15 37 -33 67 -48 81 -92 184 -117 277 l-22 81 -41 -18 c-166 -73 -376
-36 -578 100 -301 205 -552 669 -619 1145 -28 197 -28 401 0 550 5 28 12 66
15 85 19 115 105 308 182 410 23 30 41 56 40 56 -1 1 -56 23 -122 49 -151 60
-254 111 -362 181 -46 30 -87 54 -91 54 -5 0 -29 -35 -54 -77z"/>
<path d="M4593 5630 c-12 -5 -29 -22 -37 -39 -20 -38 -5 -86 35 -106 36 -19
62 -19 100 0 51 27 61 92 19 130 -22 20 -86 28 -117 15z"/>
<path d="M4368 5393 c-131 -244 -110 -461 52 -552 l42 -23 -6 73 c-4 41 -9 90
-11 109 -12 95 -15 120 -20 185 -4 39 -8 77 -10 85 -2 8 -7 49 -10 90 -4 41
-8 76 -9 78 -2 1 -14 -19 -28 -45z"/>
<path d="M10210 6205 c-25 -7 -79 -24 -120 -37 l-75 -25 113 -56 c122 -61 168
-89 193 -120 12 -15 20 -17 35 -9 55 31 364 111 429 112 l30 1 -29 24 c-16 13
-50 29 -75 36 -47 13 -61 14 -201 10 -47 -2 -103 0 -125 4 -43 9 -115 49 -115
65 0 12 -3 12 -60 -5z"/>
<path d="M9998 5663 c1 -240 5 -439 7 -442 3 -2 56 -3 117 -2 87 1 120 6 143
19 56 33 59 49 58 363 -1 326 -1 326 -83 379 -41 25 -230 120 -241 120 -3 0
-3 -197 -1 -437z m148 271 c60 -40 103 -84 114 -118 15 -48 19 -400 4 -436
-19 -44 -57 -63 -127 -65 -101 -3 -92 -32 -91 298 2 342 0 312 20 331 21 22
35 20 80 -10z"/>
<path d="M14259 5258 c-57 -62 -123 -133 -146 -158 -23 -25 -54 -58 -69 -75
-57 -63 -232 -253 -294 -320 -73 -78 -157 -168 -216 -232 -39 -42 -39 -42
-434 -163 -217 -67 -402 -123 -410 -125 -8 -2 -60 -18 -115 -35 -88 -28 -165
-51 -215 -65 -8 -2 -67 -20 -130 -40 -133 -42 -268 -84 -290 -89 -18 -5 -279
-85 -580 -178 -124 -38 -263 -81 -310 -94 -47 -14 -96 -28 -110 -33 -14 -5
-63 -21 -110 -35 -47 -14 -143 -44 -215 -66 l-130 -41 -41 45 c-22 24 -56 63
-75 86 -19 23 -49 58 -67 78 -81 89 -89 106 -85 173 3 43 10 68 22 78 29 26
190 222 239 290 41 57 47 72 50 128 3 35 7 63 11 64 3 0 30 2 58 5 220 16 325
239 182 383 -22 22 -61 47 -87 57 -26 9 -72 27 -102 38 l-55 21 -3 133 c-2
110 -5 132 -18 132 -25 0 -109 -23 -114 -31 -3 -4 -5 -197 -4 -430 l1 -423
-61 -65 c-33 -36 -65 -71 -71 -77 -5 -6 -48 -52 -95 -103 -47 -51 -100 -109
-117 -128 l-33 -36 0 -121 0 -121 111 -130 c158 -186 150 -178 185 -165 16 7
36 13 44 15 15 4 186 56 560 171 102 31 205 62 230 69 25 7 113 34 195 60 164
51 256 79 325 100 42 12 248 75 525 160 371 114 617 189 670 205 33 10 182 55
330 100 l270 82 55 57 c30 32 102 109 160 172 58 62 114 123 125 135 11 11 58
62 105 113 47 51 99 108 115 126 17 17 71 76 120 130 50 54 120 130 157 169
41 44 67 80 68 94 0 12 -2 22 -4 22 -2 0 -50 -51 -107 -112z m-3594 -428 c71
-44 91 -150 40 -216 -48 -63 -119 -80 -184 -43 -47 27 -70 59 -77 108 -18 130
112 218 221 151z"/>
<path d="M9682 4238 c-5 -7 -17 -27 -25 -44 -23 -44 -160 -180 -322 -319 -77
-66 -145 -124 -151 -130 -6 -5 -33 -28 -59 -50 -27 -22 -71 -59 -99 -83 -28
-23 -68 -47 -89 -53 -74 -20 -214 -2 -327 41 -30 12 -149 58 -265 102 -207 79
-371 142 -410 159 -66 27 -94 37 -98 32 -3 -3 2 -19 12 -37 10 -17 35 -64 55
-103 20 -39 43 -76 49 -81 9 -7 327 -117 367 -127 3 -1 12 -4 20 -8 8 -3 148
-50 310 -104 233 -77 307 -98 350 -97 54 0 229 13 263 20 9 1 52 6 95 9 42 3
93 8 112 10 19 2 67 7 105 10 39 3 84 7 100 9 17 2 68 7 115 11 47 4 94 9 105
10 11 1 36 3 56 4 32 1 37 4 37 27 l0 26 -77 -6 c-42 -4 -89 -8 -106 -10 -16
-2 -66 -7 -110 -10 -44 -4 -96 -8 -115 -11 -35 -4 -91 -10 -202 -20 -32 -3
-84 -8 -115 -11 -32 -3 -76 -7 -98 -9 -22 -1 -72 -6 -111 -10 -40 -4 -74 -3
-77 2 -3 4 -7 21 -8 38 -4 27 1 32 41 51 56 27 272 215 450 391 154 153 194
203 239 290 28 56 29 63 15 77 -19 19 -19 19 -32 4z"/>
</g>
</svg>
